<svg xmlns="http://www.w3.org/2000/svg" id="Layer_2" data-name="Layer 2" viewBox="0 0 1077.8 234.07"><defs><style>      .cls-1 {        fill: #00dceb;      }      .cls-2 {        fill: #00569b;      }      .cls-3 {        fill: #fff;      }    </style></defs><g id="Layer_1-2" data-name="Layer 1"><g><g><g><path class="cls-2" d="m373.56,71.94v129.9c0,1.34-1.09,2.43-2.43,2.43h-24.02c-1.34,0-2.43-1.09-2.43-2.43v-45.12c-6.35,7.32-15.79,11.74-28.68,11.74-25.22,0-46.01-22.14-46.01-50.82s20.79-50.82,46.01-50.82c12.9,0,22.33,4.43,28.68,11.74v-6.62c0-1.34,1.09-2.43,2.43-2.43h24.02c1.34,0,2.43,1.09,2.43,2.43Zm-28.87,45.7c0-14.44-9.63-23.48-22.91-23.48s-22.91,9.05-22.91,23.48,9.63,23.48,22.91,23.48,22.91-9.05,22.91-23.48Z"/><path class="cls-2" d="m485.79,71.94v91.4c0,1.34-1.09,2.43-2.43,2.43h-24.02c-1.34,0-2.43-1.09-2.43-2.43v-6.62c-5.2,7.12-14.82,11.74-27.53,11.74-19.44,0-36-13.86-36-39.85v-56.67c0-1.34,1.09-2.43,2.43-2.43h24.02c1.34,0,2.43,1.09,2.43,2.43v52.44c0,11.94,7.51,17.52,16.75,17.52,10.59,0,17.9-6.16,17.9-19.83v-50.13c0-1.34,1.09-2.43,2.43-2.43h24.02c1.34,0,2.43,1.09,2.43,2.43Z"/><path class="cls-2" d="m502.15,117.64c0-28.68,22.71-50.82,51.01-50.82s51.01,22.14,51.01,50.82-22.71,50.82-51.01,50.82-51.01-22.14-51.01-50.82Zm73.15,0c0-13.67-9.63-22.72-22.14-22.72s-22.14,9.05-22.14,22.72,9.63,22.71,22.14,22.71,22.14-9.05,22.14-22.71Z"/><path class="cls-2" d="m678.29,70.11v27.5c0,1.4-1.17,2.51-2.56,2.41-11.65-.88-26.31,4.52-26.31,22.25v41.08c0,1.34-1.09,2.43-2.43,2.43h-24.02c-1.34,0-2.43-1.09-2.43-2.43v-91.4c0-1.34,1.09-2.43,2.43-2.43h24.02c1.34,0,2.43,1.09,2.43,2.43v14.71c3.58-12.01,15.01-18.18,26.36-18.97,1.37-.1,2.51,1.05,2.51,2.43Z"/><path class="cls-2" d="m782.82,71.94v91.4c0,1.34-1.09,2.43-2.43,2.43h-24.02c-1.34,0-2.43-1.09-2.43-2.43v-6.62c-5.2,7.12-14.82,11.74-27.53,11.74-19.44,0-36-13.86-36-39.85v-56.67c0-1.34,1.09-2.43,2.43-2.43h24.02c1.34,0,2.43,1.09,2.43,2.43v52.44c0,11.94,7.51,17.52,16.75,17.52,10.59,0,17.9-6.16,17.9-19.83v-50.13c0-1.34,1.09-2.43,2.43-2.43h24.02c1.34,0,2.43,1.09,2.43,2.43Z"/><path class="cls-2" d="m948.37,106.67v56.67c0,1.34-1.09,2.43-2.43,2.43h-24.02c-1.34,0-2.43-1.09-2.43-2.43v-54.17c0-9.63-4.62-15.79-13.86-15.79s-15.02,6.74-15.02,18.1v51.86c0,1.34-1.09,2.43-2.43,2.43h-24.02c-1.34,0-2.43-1.09-2.43-2.43v-54.17c0-9.63-4.62-15.79-13.86-15.79s-15.01,6.74-15.01,18.1v51.86c0,1.34-1.09,2.43-2.43,2.43h-24.02c-1.34,0-2.43-1.09-2.43-2.43v-91.4c0-1.34,1.09-2.43,2.43-2.43h24.02c1.34,0,2.43,1.09,2.43,2.43v6.43c4.43-6.54,12.9-11.55,25.79-11.55,10.18,0,18.03,3.71,23.44,10.3.93,1.13,2.66,1.15,3.62.05,5.49-6.34,13.86-10.34,26.07-10.34,22.14,0,36.57,15.78,36.57,39.85Z"/><path class="cls-2" d="m973.77,69.52h24.02c1.34,0,2.43,1.09,2.43,2.43v91.4c0,1.34-1.09,2.43-2.43,2.43h-24.02c-1.34,0-2.43-1.09-2.43-2.43v-91.4c0-1.34,1.09-2.43,2.43-2.43Z"/><path class="cls-2" d="m1057.97,97.24v34.07c0,7.71,6.17,8.9,17.27,8.41,1.39-.06,2.56,1.03,2.56,2.42v21.41c0,1.26-.98,2.32-2.23,2.43-35.93,3.18-46.47-8.26-46.47-34.67v-34.07h-12.98c-1.34,0-2.43-1.09-2.43-2.43v-22.87c0-1.34,1.09-2.43,2.43-2.43h12.98v-16.48c0-1.07.7-2.02,1.73-2.32l24.02-7.21c1.56-.47,3.12.7,3.12,2.32v23.69h17.4c1.34,0,2.43,1.09,2.43,2.43v22.87c0,1.34-1.09,2.43-2.43,2.43h-17.4Z"/></g><path class="cls-2" d="m977.96,29.8h15.66c3.53,0,6.4,2.72,6.4,6.08v15.03c0,3.36-2.86,6.08-6.4,6.08h-15.66c-3.53,0-6.4-2.72-6.4-6.08v-15.03c0-3.36,2.86-6.08,6.4-6.08Z"/></g><g><rect class="cls-2" x="0" y="0" width="234.07" height="234.07" rx="41.66" ry="41.66" transform="translate(234.07 0) rotate(90)"/><g id="_0Dojqw.tif" data-name="0Dojqw.tif"><rect class="cls-1" x="162.54" y="162.29" width="29.56" height="29.72" rx="5.14" ry="5.14"/></g><path class="cls-3" d="m141.58,192.01h-54.36c-25.09,0-45.42-20.34-45.42-45.42v-59.62c0-25.09,20.34-45.42,45.42-45.42h59.62c25.08,0,45.42,20.34,45.42,45.42v54.36c0,2.91-2.36,5.26-5.26,5.26h-19.36c-2.91,0-5.26-2.36-5.26-5.26v-54.36c0-8.58-6.96-15.54-15.54-15.54h-59.62c-8.58,0-15.54,6.96-15.54,15.54v59.62c0,8.58,6.96,15.54,15.54,15.54h54.36c2.91,0,5.26,2.36,5.26,5.26v19.36c0,2.91-2.36,5.26-5.26,5.26Z"/></g></g></g></svg>